<svg width="160" height="85" viewBox="0 0 160 85" fill="none" xmlns="http://www.w3.org/2000/svg">
<path d="M8.96706 48.7025C8.93854 43.2868 11.3231 38.0829 15.5961 34.2355C19.8691 30.3881 25.6806 28.2123 31.7521 28.1869C37.8236 28.1614 43.6578 30.2884 47.9712 34.0998C52.2846 37.9113 54.7238 43.095 54.7523 48.5106L42.4367 48.5622C42.4235 46.06 41.2965 43.665 39.3036 41.9041C37.3107 40.1431 34.6152 39.1604 31.81 39.1721C29.0048 39.1839 26.3198 40.1891 24.3455 41.9667C22.3713 43.7444 21.2695 46.1487 21.2827 48.6509L8.96706 48.7025Z" fill="#009388"/>
<g filter="url(#filter0_d_226_2019)">
<rect x="9.04382" y="21.4717" width="12.7307" height="55.155" fill="#009388"/>
</g>
<path d="M42.6062 47.7217H54.6755V62.8024V76.6264H42.6062V62.8024V47.7217Z" fill="#009388"/>
<path d="M8.98436 2.1029C8.72583 1.44674 9.20949 0.736328 9.91475 0.736328H20.9651C21.6736 0.736328 22.1574 1.45276 21.8927 2.10994L18.8206 9.73715C18.72 9.98686 18.7244 10.2666 18.8327 10.513L21.8298 17.3341C22.1201 17.9949 21.6361 18.7363 20.9143 18.7363H9.96267C9.2447 18.7363 8.76067 18.0022 9.04357 17.3423L11.9795 10.4941C12.0833 10.2519 12.0874 9.97857 11.9908 9.73345L8.98436 2.1029Z" fill="#009388"/>
<path d="M75.638 61.857H78.381V76.627H75.638V61.857ZM67.9998 76.627H65.2568V61.857H67.9998V76.627ZM75.849 70.297H67.7677V67.9549H75.849V70.297ZM87.3817 76.7747C86.1297 76.7747 85.0325 76.5285 84.0901 76.0362C83.1617 75.5298 82.4372 74.8405 81.9168 73.9684C81.4104 73.0962 81.1572 72.1045 81.1572 70.9933C81.1572 69.8679 81.4033 68.8762 81.8957 68.0182C82.4021 67.146 83.0913 66.4638 83.9635 65.9715C84.8497 65.4791 85.8554 65.233 86.9808 65.233C88.078 65.233 89.0556 65.4721 89.9137 65.9504C90.7717 66.4286 91.4469 67.1038 91.9393 67.976C92.4316 68.8481 92.6778 69.875 92.6778 71.0566C92.6778 71.1691 92.6707 71.2957 92.6567 71.4364C92.6567 71.577 92.6496 71.7107 92.6356 71.8373H83.2461V70.086H91.243L90.2091 70.6346C90.2231 69.9875 90.0895 69.4178 89.8082 68.9255C89.5268 68.4331 89.14 68.0463 88.6477 67.765C88.1694 67.4836 87.6138 67.343 86.9808 67.343C86.3337 67.343 85.764 67.4836 85.2717 67.765C84.7934 68.0463 84.4136 68.4402 84.1323 68.9466C83.865 69.4389 83.7314 70.0227 83.7314 70.6979V71.1199C83.7314 71.7951 83.8861 72.3929 84.1956 72.9134C84.505 73.4338 84.9411 73.8347 85.5038 74.1161C86.0664 74.3974 86.7135 74.5381 87.445 74.5381C88.078 74.5381 88.6477 74.4396 89.1541 74.2427C89.6605 74.0457 90.1106 73.7363 90.5045 73.3143L91.9182 74.939C91.4118 75.5298 90.7717 75.9869 89.9981 76.3105C89.2385 76.6199 88.3663 76.7747 87.3817 76.7747ZM101.844 76.627V74.3482L101.696 73.8629V69.875C101.696 69.1013 101.464 68.5035 101 68.0815C100.536 67.6454 99.8325 67.4274 98.8901 67.4274C98.2571 67.4274 97.6311 67.5258 97.0122 67.7228C96.4073 67.9197 95.8939 68.194 95.4719 68.5457L94.438 66.6256C95.0428 66.1614 95.7602 65.8167 96.5902 65.5917C97.4342 65.3525 98.3063 65.233 99.2066 65.233C100.838 65.233 102.097 65.6268 102.983 66.4146C103.884 67.1882 104.334 68.3909 104.334 70.0227V76.627H101.844ZM98.2993 76.7747C97.4553 76.7747 96.7168 76.634 96.0838 76.3527C95.4508 76.0573 94.9584 75.6564 94.6068 75.15C94.2692 74.6295 94.1004 74.0457 94.1004 73.3987C94.1004 72.7657 94.2481 72.196 94.5435 71.6896C94.8529 71.1832 95.3523 70.7823 96.0416 70.4869C96.7308 70.1915 97.6452 70.0438 98.7846 70.0438H102.055V71.7951H98.9745C98.0742 71.7951 97.4693 71.9428 97.1599 72.2382C96.8504 72.5195 96.6957 72.8712 96.6957 73.2932C96.6957 73.7714 96.8856 74.1512 97.2654 74.4326C97.6452 74.7139 98.1727 74.8546 98.8479 74.8546C99.4949 74.8546 100.072 74.7069 100.578 74.4115C101.099 74.1161 101.471 73.68 101.696 73.1033L102.139 74.6858C101.886 75.3469 101.429 75.8603 100.768 76.2261C100.121 76.5918 99.298 76.7747 98.2993 76.7747ZM107.719 76.627V60.9708H110.356V76.627H107.719ZM114.662 76.7747C114.184 76.7747 113.776 76.6129 113.438 76.2894C113.101 75.9518 112.932 75.5298 112.932 75.0234C112.932 74.4888 113.101 74.0668 113.438 73.7574C113.776 73.4338 114.184 73.2721 114.662 73.2721C115.14 73.2721 115.548 73.4338 115.886 73.7574C116.223 74.0668 116.392 74.4888 116.392 75.0234C116.392 75.5298 116.223 75.9518 115.886 76.2894C115.548 76.6129 115.14 76.7747 114.662 76.7747ZM126.117 76.627V74.3482L125.97 73.8629V69.875C125.97 69.1013 125.738 68.5035 125.273 68.0815C124.809 67.6454 124.106 67.4274 123.163 67.4274C122.53 67.4274 121.904 67.5258 121.285 67.7228C120.681 67.9197 120.167 68.194 119.745 68.5457L118.711 66.6256C119.316 66.1614 120.033 65.8167 120.863 65.5917C121.707 65.3525 122.58 65.233 123.48 65.233C125.112 65.233 126.371 65.6268 127.257 66.4146C128.157 67.1882 128.607 68.3909 128.607 70.0227V76.627H126.117ZM122.573 76.7747C121.729 76.7747 120.99 76.634 120.357 76.3527C119.724 76.0573 119.232 75.6564 118.88 75.15C118.542 74.6295 118.374 74.0457 118.374 73.3987C118.374 72.7657 118.521 72.196 118.817 71.6896C119.126 71.1832 119.626 70.7823 120.315 70.4869C121.004 70.1915 121.918 70.0438 123.058 70.0438H126.328V71.7951H123.248C122.347 71.7951 121.743 71.9428 121.433 72.2382C121.124 72.5195 120.969 72.8712 120.969 73.2932C120.969 73.7714 121.159 74.1512 121.539 74.4326C121.918 74.7139 122.446 74.8546 123.121 74.8546C123.768 74.8546 124.345 74.7069 124.851 74.4115C125.372 74.1161 125.745 73.68 125.97 73.1033L126.413 74.6858C126.16 75.3469 125.702 75.8603 125.041 76.2261C124.394 76.5918 123.571 76.7747 122.573 76.7747ZM138.238 76.7747C137.323 76.7747 136.486 76.5637 135.727 76.1417C134.981 75.7197 134.383 75.0867 133.933 74.2427C133.497 73.3846 133.279 72.3015 133.279 70.9933C133.279 69.671 133.49 68.5879 133.912 67.7439C134.348 66.8999 134.939 66.2739 135.685 65.866C136.43 65.444 137.281 65.233 138.238 65.233C139.349 65.233 140.327 65.4721 141.171 65.9504C142.029 66.4286 142.704 67.0968 143.196 67.9549C143.703 68.8129 143.956 69.8257 143.956 70.9933C143.956 72.1608 143.703 73.1806 143.196 74.0528C142.704 74.9108 142.029 75.579 141.171 76.0573C140.327 76.5355 139.349 76.7747 138.238 76.7747ZM131.992 80.7204V65.3596H134.503V68.0182L134.419 71.0144L134.63 74.0106V80.7204H131.992ZM137.942 74.517C138.575 74.517 139.138 74.3763 139.63 74.095C140.137 73.8136 140.538 73.4057 140.833 72.8712C141.128 72.3366 141.276 71.7107 141.276 70.9933C141.276 70.2618 141.128 69.6358 140.833 69.1154C140.538 68.5808 140.137 68.1729 139.63 67.8916C139.138 67.6102 138.575 67.4696 137.942 67.4696C137.309 67.4696 136.74 67.6102 136.233 67.8916C135.727 68.1729 135.326 68.5808 135.03 69.1154C134.735 69.6358 134.587 70.2618 134.587 70.9933C134.587 71.7107 134.735 72.3366 135.03 72.8712C135.326 73.4057 135.727 73.8136 136.233 74.095C136.74 74.3763 137.309 74.517 137.942 74.517ZM152.703 76.7747C151.788 76.7747 150.951 76.5637 150.192 76.1417C149.446 75.7197 148.848 75.0867 148.398 74.2427C147.962 73.3846 147.744 72.3015 147.744 70.9933C147.744 69.671 147.955 68.5879 148.377 67.7439C148.813 66.8999 149.404 66.2739 150.15 65.866C150.895 65.444 151.746 65.233 152.703 65.233C153.814 65.233 154.792 65.4721 155.636 65.9504C156.494 66.4286 157.169 67.0968 157.661 67.9549C158.168 68.8129 158.421 69.8257 158.421 70.9933C158.421 72.1608 158.168 73.1806 157.661 74.0528C157.169 74.9108 156.494 75.579 155.636 76.0573C154.792 76.5355 153.814 76.7747 152.703 76.7747ZM146.457 80.7204V65.3596H148.968V68.0182L148.884 71.0144L149.095 74.0106V80.7204H146.457ZM152.407 74.517C153.04 74.517 153.603 74.3763 154.095 74.095C154.602 73.8136 155.003 73.4057 155.298 72.8712C155.593 72.3366 155.741 71.7107 155.741 70.9933C155.741 70.2618 155.593 69.6358 155.298 69.1154C155.003 68.5808 154.602 68.1729 154.095 67.8916C153.603 67.6102 153.04 67.4696 152.407 67.4696C151.774 67.4696 151.205 67.6102 150.698 67.8916C150.192 68.1729 149.791 68.5808 149.495 69.1154C149.2 69.6358 149.052 70.2618 149.052 70.9933C149.052 71.7107 149.2 72.3366 149.495 72.8712C149.791 73.4057 150.192 73.8136 150.698 74.095C151.205 74.3763 151.774 74.517 152.407 74.517Z" fill="#084C37"/>
<defs>
<filter id="filter0_d_226_2019" x="9.04382" y="13.4717" width="28.7307" height="71.1553" filterUnits="userSpaceOnUse" color-interpolation-filters="sRGB">
<feFlood flood-opacity="0" result="BackgroundImageFix"/>
<feColorMatrix in="SourceAlpha" type="matrix" values="0 0 0 0 0 0 0 0 0 0 0 0 0 0 0 0 0 0 127 0" result="hardAlpha"/>
<feOffset dx="8"/>
<feGaussianBlur stdDeviation="4"/>
<feComposite in2="hardAlpha" operator="out"/>
<feColorMatrix type="matrix" values="0 0 0 0 0 0 0 0 0 0 0 0 0 0 0 0 0 0 0.25 0"/>
<feBlend mode="normal" in2="BackgroundImageFix" result="effect1_dropShadow_226_2019"/>
<feBlend mode="normal" in="SourceGraphic" in2="effect1_dropShadow_226_2019" result="shape"/>
</filter>
</defs>
</svg>
