<svg width="3061" height="1438" viewBox="0 0 3061 1438" fill="none" xmlns="http://www.w3.org/2000/svg">
<path d="M1.00739 938.615C0.535398 838.143 39.9948 741.6 110.705 670.222C181.415 598.844 277.584 558.479 378.055 558.007C478.526 557.535 575.07 596.995 646.448 667.705C717.826 738.415 758.19 834.584 758.662 935.055L554.863 936.013C554.645 889.592 535.995 845.16 503.017 812.49C470.039 779.82 425.433 761.589 379.013 761.807C332.592 762.025 288.16 780.675 255.49 813.653C222.82 846.631 204.589 891.237 204.807 937.657L1.00739 938.615Z" fill="#009388"/>
<path d="M0 297H205V1278H0V297Z" fill="#009388"/>
<path d="M555 935H759V1278H555V935Z" fill="#009388"/>
<path d="M3.02564 8.09961C1.56081 4.17827 4.46028 0 8.64629 0H196.286C200.491 0 203.391 4.21256 201.891 8.14048L150.466 142.806C149.918 144.243 149.941 145.835 150.533 147.254L201.539 269.693C203.186 273.645 200.282 278 196.001 278H8.91551C4.65646 278 1.75338 273.686 3.35713 269.741L53.234 147.032C53.8005 145.639 53.8227 144.083 53.2962 142.673L3.02564 8.09961Z" fill="#009388"/>
<path d="M1121.3 1104.36C1121.3 1113.74 1120.69 1123.12 1119.47 1132.51H892.416C893.64 1151.28 898.74 1165.35 907.716 1174.74C917.1 1183.71 928.932 1188.2 943.212 1188.2C963.204 1188.2 977.484 1179.22 986.052 1161.27H1113.96C1108.66 1184.94 1098.25 1206.15 1082.75 1224.92C1067.65 1243.28 1048.48 1257.76 1025.22 1268.37C1001.96 1278.98 976.26 1284.28 948.108 1284.28C914.244 1284.28 884.052 1277.14 857.532 1262.86C831.42 1248.58 810.816 1228.18 795.72 1201.66C781.032 1175.14 773.688 1143.93 773.688 1108.03C773.688 1072.12 781.032 1041.12 795.72 1015C810.408 988.484 830.808 968.084 856.92 953.804C883.44 939.524 913.836 932.384 948.108 932.384C981.972 932.384 1011.96 939.32 1038.07 953.192C1064.18 967.064 1084.58 987.056 1099.27 1013.17C1113.96 1038.87 1121.3 1069.27 1121.3 1104.36ZM998.904 1074.37C998.904 1059.68 994.008 1048.26 984.216 1040.1C974.424 1031.53 962.184 1027.24 947.496 1027.24C932.808 1027.24 920.772 1031.32 911.388 1039.48C902.004 1047.24 895.884 1058.86 893.028 1074.37H998.904Z" fill="#009388"/>
<path d="M1150.81 1108.03C1150.81 1072.53 1157.13 1041.52 1169.78 1015C1182.84 988.484 1200.38 968.084 1222.41 953.804C1244.85 939.524 1269.74 932.384 1297.08 932.384C1320.74 932.384 1341.14 937.076 1358.28 946.46C1375.41 955.844 1388.67 968.492 1398.06 984.404V936.668H1518.01V1280H1398.06V1232.26C1388.67 1248.18 1375.21 1260.82 1357.67 1270.21C1340.53 1279.59 1320.33 1284.28 1297.08 1284.28C1269.74 1284.28 1244.85 1277.14 1222.41 1262.86C1200.38 1248.58 1182.84 1228.18 1169.78 1201.66C1157.13 1174.74 1150.81 1143.52 1150.81 1108.03ZM1398.06 1108.03C1398.06 1086 1391.94 1068.66 1379.7 1056.01C1367.87 1043.36 1353.18 1037.04 1335.63 1037.04C1317.68 1037.04 1302.79 1043.36 1290.96 1056.01C1279.13 1068.25 1273.21 1085.59 1273.21 1108.03C1273.21 1130.06 1279.13 1147.6 1290.96 1160.66C1302.79 1173.31 1317.68 1179.63 1335.63 1179.63C1353.18 1179.63 1367.87 1173.31 1379.7 1160.66C1391.94 1148.01 1398.06 1130.47 1398.06 1108.03Z" fill="#009388"/>
<path d="M1706.31 827.12V1280H1586.36V827.12H1706.31Z" fill="#009388"/>
<path d="M1796.66 1283.06C1787.68 1283.06 1780.13 1280 1774.01 1273.88C1768.3 1267.76 1765.44 1260.21 1765.44 1251.24C1765.44 1242.26 1768.3 1234.92 1774.01 1229.2C1780.13 1223.08 1787.68 1220.02 1796.66 1220.02C1805.22 1220.02 1812.36 1223.08 1818.08 1229.2C1824.2 1234.92 1827.26 1242.26 1827.26 1251.24C1827.26 1260.21 1824.2 1267.76 1818.08 1273.88C1812.36 1280 1805.22 1283.06 1796.66 1283.06Z" fill="#009388"/>
<path d="M1880.89 1112.31C1880.89 1078.04 1887.62 1048.05 1901.09 1022.35C1914.96 996.236 1933.93 976.244 1958 962.372C1982.48 948.092 2010.02 940.952 2040.62 940.952C2072.45 940.952 2099.78 948.296 2122.63 962.984C2145.89 977.672 2162.62 996.44 2172.82 1019.29V945.848H2215.66V1280H2172.82V1205.95C2162.21 1228.8 2145.28 1247.77 2122.02 1262.86C2099.17 1277.55 2071.84 1284.9 2040.01 1284.9C2009.82 1284.9 1982.48 1277.76 1958 1263.48C1933.93 1249.2 1914.96 1229 1901.09 1202.89C1887.62 1176.78 1880.89 1146.58 1880.89 1112.31ZM2172.82 1112.92C2172.82 1086 2167.31 1062.33 2156.29 1041.93C2145.28 1021.53 2130.18 1005.82 2111 994.808C2092.24 983.792 2071.43 978.284 2048.58 978.284C2024.92 978.284 2003.7 983.588 1984.93 994.196C1966.16 1004.8 1951.27 1020.31 1940.26 1040.71C1929.65 1060.7 1924.34 1084.57 1924.34 1112.31C1924.34 1139.65 1929.65 1163.72 1940.26 1184.53C1951.27 1204.93 1966.16 1220.64 1984.93 1231.65C2003.7 1242.26 2024.92 1247.56 2048.58 1247.56C2071.43 1247.56 2092.24 1242.06 2111 1231.04C2130.18 1220.02 2145.28 1204.32 2156.29 1183.92C2167.31 1163.52 2172.82 1139.85 2172.82 1112.92Z" fill="#009388"/>
<path d="M2355.68 1019.29C2366.29 996.848 2383.02 978.284 2405.87 963.596C2429.12 948.5 2456.66 940.952 2488.49 940.952C2518.68 940.952 2545.81 948.092 2569.88 962.372C2594.36 976.244 2613.34 996.236 2626.8 1022.35C2640.67 1048.05 2647.61 1078.04 2647.61 1112.31C2647.61 1146.58 2640.67 1176.78 2626.8 1202.89C2613.34 1229 2594.36 1249.2 2569.88 1263.48C2545.81 1277.76 2518.68 1284.9 2488.49 1284.9C2457.07 1284.9 2429.74 1277.55 2406.48 1262.86C2383.22 1247.77 2366.29 1229 2355.68 1206.56V1437.9H2313.46V945.848H2355.68V1019.29ZM2604.16 1112.31C2604.16 1084.57 2598.65 1060.7 2587.63 1040.71C2577.02 1020.31 2562.34 1004.8 2543.57 994.196C2524.8 983.588 2503.58 978.284 2479.92 978.284C2457.07 978.284 2436.06 983.792 2416.88 994.808C2398.12 1005.82 2383.22 1021.53 2372.21 1041.93C2361.19 1062.33 2355.68 1086 2355.68 1112.92C2355.68 1139.85 2361.19 1163.52 2372.21 1183.92C2383.22 1204.32 2398.12 1220.02 2416.88 1231.04C2436.06 1242.06 2457.07 1247.56 2479.92 1247.56C2503.58 1247.56 2524.8 1242.26 2543.57 1231.65C2562.34 1220.64 2577.02 1204.93 2587.63 1184.53C2598.65 1163.72 2604.16 1139.65 2604.16 1112.31Z" fill="#009388"/>
<path d="M2768.66 1019.29C2779.27 996.848 2796 978.284 2818.85 963.596C2842.1 948.5 2869.64 940.952 2901.47 940.952C2931.66 940.952 2958.79 948.092 2982.86 962.372C3007.34 976.244 3026.32 996.236 3039.78 1022.35C3053.65 1048.05 3060.59 1078.04 3060.59 1112.31C3060.59 1146.58 3053.65 1176.78 3039.78 1202.89C3026.32 1229 3007.34 1249.2 2982.86 1263.48C2958.79 1277.76 2931.66 1284.9 2901.47 1284.9C2870.05 1284.9 2842.72 1277.55 2819.46 1262.86C2796.2 1247.77 2779.27 1229 2768.66 1206.56V1437.9H2726.44V945.848H2768.66V1019.29ZM3017.14 1112.31C3017.14 1084.57 3011.63 1060.7 3000.61 1040.71C2990 1020.31 2975.32 1004.8 2956.55 994.196C2937.78 983.588 2916.56 978.284 2892.9 978.284C2870.05 978.284 2849.04 983.792 2829.86 994.808C2811.1 1005.82 2796.2 1021.53 2785.19 1041.93C2774.17 1062.33 2768.66 1086 2768.66 1112.92C2768.66 1139.85 2774.17 1163.52 2785.19 1183.92C2796.2 1204.32 2811.1 1220.02 2829.86 1231.04C2849.04 1242.06 2870.05 1247.56 2892.9 1247.56C2916.56 1247.56 2937.78 1242.26 2956.55 1231.65C2975.32 1220.64 2990 1204.93 3000.61 1184.53C3011.63 1163.72 3017.14 1139.65 3017.14 1112.31Z" fill="#009388"/>
</svg>
